<svg width="286" height="90" viewBox="0 0 286 90" fill="none" xmlns="http://www.w3.org/2000/svg">
<path d="M30.5 7.38806H31.5L31.1455 38.3154L31 38.4328L30.8545 38.3154L30.5 7.38806Z" fill="black"/>
<path d="M25.5 9.77612H26.5L26.1455 35.9454L26 36.0448L25.8545 35.9454L25.5 9.77612Z" fill="black"/>
<path d="M20.5 12.1642H21.5L21.1455 33.5754L21 33.6567L20.8545 33.5754L20.5 12.1642Z" fill="black"/>
<path d="M15.5 14.5522H16.5L16.1455 31.2054L16 31.2687L15.8545 31.2054L15.5 14.5522Z" fill="black"/>
<path d="M10.5 16.9403H11.5L11.1455 28.8354L11 28.8806L10.8545 28.8354L10.5 16.9403Z" fill="black"/>
<path d="M5.5 19.3284H6.5L6.14548 26.4654L6 26.4925L5.85452 26.4654L5.5 19.3284Z" fill="black"/>
<path d="M35 38.4328H37L36.291 84.8239L36 85L35.709 84.8239L35 38.4328Z" fill="black"/>
<path d="M0 21.7164H2L1.29096 68.1075L0.999995 68.2836L0.709028 68.1075L0 21.7164Z" fill="black"/>
<path d="M32 36.0448H30L30.709 82.4358L31 82.6119L31.291 82.4358L32 36.0448Z" fill="black"/>
<path d="M27 33.6567H25L25.709 80.0478L26 80.2239L26.291 80.0478L27 33.6567Z" fill="black"/>
<path d="M22 31.2687H20L20.709 77.6597L21 77.8358L21.291 77.6597L22 31.2687Z" fill="black"/>
<path d="M17 28.8806H15L15.709 75.2717L16 75.4478L16.291 75.2717L17 28.8806Z" fill="black"/>
<path d="M12 26.4925H10L10.709 72.8836L11 73.0597L11.291 72.8836L12 26.4925Z" fill="black"/>
<path d="M7 24.1045H5L5.70904 70.4955L6.00001 70.6716L6.29097 70.4955L7 24.1045Z" fill="black"/>
<path d="M72 21.7164H70L70.709 68.1075L71 68.2836L71.291 68.1075L72 21.7164Z" fill="black"/>
<path d="M40 36.0448H42L41.291 82.4358L41 82.6119L40.709 82.4358L40 36.0448Z" fill="black"/>
<path d="M45 33.6567H47L46.291 80.0478L46 80.2239L45.709 80.0478L45 33.6567Z" fill="black"/>
<path d="M50 31.2687H52L51.291 77.6597L51 77.8358L50.709 77.6597L50 31.2687Z" fill="black"/>
<path d="M55 28.8806H57L56.291 75.2717L56 75.4478L55.709 75.2717L55 28.8806Z" fill="black"/>
<path d="M60 26.4925H62L61.291 72.8836L61 73.0597L60.709 72.8836L60 26.4925Z" fill="black"/>
<path d="M65 24.1045H67L66.291 70.4955L66 70.6716L65.709 70.4955L65 24.1045Z" fill="black"/>
<path d="M35.5 5H36.5L36.1455 40.6854L36 40.8209L35.8545 40.6854L35.5 5Z" fill="black"/>
<path d="M41.5 7.38806H40.5L40.8545 38.3154L41 38.4328L41.1455 38.3154L41.5 7.38806Z" fill="black"/>
<path d="M46.5 9.77612H45.5L45.8545 35.9454L46 36.0448L46.1455 35.9454L46.5 9.77612Z" fill="black"/>
<path d="M51.5 12.1642H50.5L50.8545 33.5754L51 33.6567L51.1455 33.5754L51.5 12.1642Z" fill="black"/>
<path d="M56.5 14.5522H55.5L55.8545 31.2054L56 31.2687L56.1455 31.2054L56.5 14.5522Z" fill="black"/>
<path d="M61.5 16.9403H60.5L60.8545 28.8354L61 28.8806L61.1455 28.8354L61.5 16.9403Z" fill="black"/>
<path d="M66.5 19.3284H65.5L65.8545 26.4654L66 26.4925L66.1455 26.4654L66.5 19.3284Z" fill="black"/>
<path d="M215.999 13.7144V4.0001H225.999V13.7144H215.999ZM216.499 72.0001V18.8272H225.499V72.0001H216.499Z" fill="black"/>
<path d="M161.999 55.5602C161.999 46.711 167.909 41.2539 180.714 40.7132L199.429 39.9266V37.1735C199.429 29.8974 195.686 25.6694 186.624 25.6694C177.562 25.6694 173.917 29.8974 173.72 35.207H164.56C164.954 25.4728 171.849 18.0001 186.624 18.0001C201.399 18.0001 207.999 25.4728 207.999 37.6651V70.9833H199.429V62.8363C199.429 62.443 199.232 62.2463 198.838 62.2463C198.444 62.2463 198.099 62.3447 197.853 62.9346C195.538 68.3425 190.212 72.0001 181.446 72.0001C169.626 72.0001 161.999 65.3927 161.999 55.5602ZM170.864 55.5602C170.864 60.9681 175.296 64.4095 183.177 64.4095C193.027 64.4095 199.429 58.8049 199.429 47.9892V47.3993L180.714 48.1859C173.819 48.4808 170.864 51.1356 170.864 55.5602Z" fill="black"/>
<path d="M155.999 45.3104C155.999 63.6828 144.126 72.0001 131.999 72.0001C123.656 72.0001 117.581 69.1449 114.282 62.4911C113.991 61.8953 113.797 61.6966 113.312 61.6966C112.924 61.6966 112.73 61.8953 112.73 62.2925V90.0001H103.999V19.0287H112.73V28.3284C112.73 28.7256 112.924 28.9242 113.312 28.9242C113.797 28.9242 113.991 28.7256 114.282 28.1297C117.581 21.476 123.402 18.0001 131.745 18.0001C143.872 18.0001 155.999 26.938 155.999 45.3104ZM147.171 45.3104C147.171 32.8966 139.894 25.9449 129.708 25.9449C119.521 25.9449 112.245 32.8966 112.245 45.3104C112.245 57.7242 119.521 64.676 129.708 64.676C139.894 64.676 147.171 57.7242 147.171 45.3104Z" fill="black"/>
<path d="M234 44.6897C234 26.3172 245.873 18 258 18C266.343 18 272.418 20.8552 275.716 27.509C276.007 28.1048 276.202 28.3035 276.687 28.3035C277.075 28.3035 277.269 28.1048 277.269 27.7076L277.269 0L286 7.63321e-07V70.9714H277.269V61.6717C277.269 61.2745 277.075 61.0759 276.687 61.0759C276.201 61.0759 276.007 61.2745 275.716 61.8703C272.418 68.5241 266.597 72 258.254 72C246.127 72 234 63.0621 234 44.6897ZM242.828 44.6897C242.828 57.1034 250.104 64.0552 260.291 64.0552C270.478 64.0552 277.754 57.1034 277.754 44.6897C277.754 32.2759 270.478 25.3241 260.291 25.3241C250.104 25.3241 242.828 32.2759 242.828 44.6897Z" fill="black"/>
</svg>
