<svg width="268" height="90" viewBox="0 0 268 90" fill="none" xmlns="http://www.w3.org/2000/svg">
<path d="M29.5 12H28.5L28.8545 40.8903L29 41L29.1455 40.8903L29.5 12Z" fill="black"/>
<path d="M24.5 14H25.5L25.1455 38.9055L25 39L24.8545 38.9055L24.5 14Z" fill="black"/>
<path d="M20.5 16H21.5L21.1455 36.9206L21 37L20.8545 36.9206L20.5 16Z" fill="black"/>
<path d="M16.5 18H17.5L17.1455 35.4338L17 35.5L16.8545 35.4338L16.5 18Z" fill="black"/>
<path d="M12.5 19.5H13.5L13.1455 33.4471L13 33.5L12.8545 33.4471L12.5 19.5Z" fill="black"/>
<path d="M8.5 21.5H9.5L9.14548 31.4622L9 31.5L8.85452 31.4622L8.5 21.5Z" fill="black"/>
<path d="M4.5 23.5H5.5L5.14548 29.4773L5 29.5L4.85452 29.4773L4.5 23.5Z" fill="black"/>
<path d="M32 41H34L33.291 79.8525L33 80L32.709 79.8525L32 41Z" fill="black"/>
<path d="M0 25.5H2L1.29096 64.3525L0.999995 64.5L0.709028 64.3525L0 25.5Z" fill="black"/>
<path d="M36.5 12H37.5L37.1455 40.8903L37 41L36.8545 40.8903L36.5 12Z" fill="black"/>
<path d="M41.5 14H40.5L40.8545 38.9055L41 39L41.1455 38.9055L41.5 14Z" fill="black"/>
<path d="M45.5 16H44.5L44.8545 36.9206L45 37L45.1455 36.9206L45.5 16Z" fill="black"/>
<path d="M49.5 18H48.5L48.8545 35.4338L49 35.5L49.1455 35.4338L49.5 18Z" fill="black"/>
<path d="M53.5 19.5H52.5L52.8545 33.4471L53 33.5L53.1455 33.4471L53.5 19.5Z" fill="black"/>
<path d="M57.5 21.5H56.5L56.8545 31.4622L57 31.5L57.1455 31.4622L57.5 21.5Z" fill="black"/>
<path d="M61.5 23.5H60.5L60.8545 29.4773L61 29.5L61.1455 29.4773L61.5 23.5Z" fill="black"/>
<path d="M30 39H28L28.709 77.8525L29 78L29.291 77.8525L30 39Z" fill="black"/>
<path d="M26 37H24L24.709 75.8525L25 76L25.291 75.8525L26 37Z" fill="black"/>
<path d="M22 35.5H20L20.709 74.3525L21 74.5L21.291 74.3525L22 35.5Z" fill="black"/>
<path d="M18 33.5H16L16.709 72.3525L17 72.5L17.291 72.3525L18 33.5Z" fill="black"/>
<path d="M14 31.5H12L12.709 70.3525L13 70.5L13.291 70.3525L14 31.5Z" fill="black"/>
<path d="M10 29.5H8L8.70904 68.3525L9 68.5L9.29097 68.3525L10 29.5Z" fill="black"/>
<path d="M6 27.5H4L4.70904 66.3525L5.00001 66.5L5.29097 66.3525L6 27.5Z" fill="black"/>
<path d="M66 25.5H64L64.709 64.3525L65 64.5L65.291 64.3525L66 25.5Z" fill="black"/>
<path d="M36 39H38L37.291 77.8525L37 78L36.709 77.8525L36 39Z" fill="black"/>
<path d="M40 37H42L41.291 75.8525L41 76L40.709 75.8525L40 37Z" fill="black"/>
<path d="M44 35.5H46L45.291 74.3525L45 74.5L44.709 74.3525L44 35.5Z" fill="black"/>
<path d="M48 33.5H50L49.291 72.3525L49 72.5L48.709 72.3525L48 33.5Z" fill="black"/>
<path d="M52 31.5H54L53.291 70.3525L53 70.5L52.709 70.3525L52 31.5Z" fill="black"/>
<path d="M56 29.5H58L57.291 68.3525L57 68.5L56.709 68.3525L56 29.5Z" fill="black"/>
<path d="M60 27.5H62L61.291 66.3525L61 66.5L60.709 66.3525L60 27.5Z" fill="black"/>
<path d="M32.5 10H33.5L33.1455 42.8752L33 43L32.8545 42.8752L32.5 10Z" fill="black"/>
<path d="M197.999 13.7144V4.0001H207.999V13.7144H197.999ZM198.499 72.0001V18.8272H207.499V72.0001H198.499Z" fill="black"/>
<path d="M143.999 55.5602C143.999 46.711 149.909 41.2539 162.714 40.7132L181.429 39.9266V37.1735C181.429 29.8974 177.686 25.6694 168.624 25.6694C159.562 25.6694 155.917 29.8974 155.72 35.207H146.56C146.954 25.4728 153.849 18.0001 168.624 18.0001C183.399 18.0001 189.999 25.4728 189.999 37.6651V70.9833H181.429V62.8363C181.429 62.443 181.232 62.2463 180.838 62.2463C180.444 62.2463 180.099 62.3447 179.853 62.9346C177.538 68.3425 172.212 72.0001 163.446 72.0001C151.626 72.0001 143.999 65.3927 143.999 55.5602ZM152.864 55.5602C152.864 60.9681 157.296 64.4095 165.177 64.4095C175.027 64.4095 181.429 58.8049 181.429 47.9892V47.3993L162.714 48.1859C155.819 48.4808 152.864 51.1356 152.864 55.5602Z" fill="black"/>
<path d="M137.999 45.3104C137.999 63.6828 126.126 72.0001 113.999 72.0001C105.656 72.0001 99.581 69.1449 96.2825 62.4911C95.9914 61.8953 95.7974 61.6966 95.3123 61.6966C94.9242 61.6966 94.7302 61.8953 94.7302 62.2925V90.0001H85.9989V19.0287H94.7302V28.3284C94.7302 28.7256 94.9242 28.9242 95.3123 28.9242C95.7974 28.9242 95.9914 28.7256 96.2825 28.1297C99.581 21.476 105.402 18.0001 113.745 18.0001C125.872 18.0001 137.999 26.938 137.999 45.3104ZM129.171 45.3104C129.171 32.8966 121.894 25.9449 111.708 25.9449C101.521 25.9449 94.2451 32.8966 94.2451 45.3104C94.2451 57.7242 101.521 64.676 111.708 64.676C121.894 64.676 129.171 57.7242 129.171 45.3104Z" fill="black"/>
<path d="M216 44.6897C216 26.3172 227.873 18 240 18C248.343 18 254.418 20.8552 257.716 27.509C258.007 28.1048 258.202 28.3035 258.687 28.3035C259.075 28.3035 259.269 28.1048 259.269 27.7076L259.269 0L268 7.63321e-07V70.9714H259.269V61.6717C259.269 61.2745 259.075 61.0759 258.687 61.0759C258.201 61.0759 258.007 61.2745 257.716 61.8703C254.418 68.5241 248.597 72 240.254 72C228.127 72 216 63.0621 216 44.6897ZM224.828 44.6897C224.828 57.1034 232.104 64.0552 242.291 64.0552C252.478 64.0552 259.754 57.1034 259.754 44.6897C259.754 32.2759 252.478 25.3241 242.291 25.3241C232.104 25.3241 224.828 32.2759 224.828 44.6897Z" fill="black"/>
</svg>
